<?xml version="1.0" encoding="UTF-8"?>
<!-- Do not edit this file with editors other than draw.io -->
<!DOCTYPE svg PUBLIC "-//W3C//DTD SVG 1.1//EN" "http://www.w3.org/Graphics/SVG/1.1/DTD/svg11.dtd">
<svg xmlns="http://www.w3.org/2000/svg" style="background: transparent; background-color: transparent; color-scheme: light dark;" xmlns:xlink="http://www.w3.org/1999/xlink" version="1.1" width="185px" height="88px" viewBox="0 0 185 88" content="&lt;mxfile host=&quot;Electron&quot; agent=&quot;Mozilla/5.0 (Macintosh; Intel Mac OS X 10_15_7) AppleWebKit/537.36 (KHTML, like Gecko) draw.io/29.3.6 Chrome/140.0.7339.249 Electron/38.8.0 Safari/537.36&quot; version=&quot;29.3.6&quot; scale=&quot;1&quot; border=&quot;0&quot;&gt;&#10;  &lt;diagram name=&quot;Page-1&quot; id=&quot;jnof4GCvRRBlvsw4NL3Z&quot;&gt;&#10;    &lt;mxGraphModel dx=&quot;1234&quot; dy=&quot;835&quot; grid=&quot;1&quot; gridSize=&quot;10&quot; guides=&quot;1&quot; tooltips=&quot;1&quot; connect=&quot;1&quot; arrows=&quot;1&quot; fold=&quot;1&quot; page=&quot;1&quot; pageScale=&quot;1&quot; pageWidth=&quot;827&quot; pageHeight=&quot;1169&quot; math=&quot;0&quot; shadow=&quot;0&quot;&gt;&#10;      &lt;root&gt;&#10;        &lt;mxCell id=&quot;0&quot; /&gt;&#10;        &lt;mxCell id=&quot;1&quot; parent=&quot;0&quot; /&gt;&#10;        &lt;mxCell id=&quot;2&quot; parent=&quot;1&quot; style=&quot;ellipse;whiteSpace=wrap;html=1;fillColor=#dae8fc;strokeColor=#6c8ebf;&quot; value=&quot;&quot; vertex=&quot;1&quot;&gt;&#10;          &lt;mxGeometry height=&quot;80&quot; width=&quot;120&quot; x=&quot;940&quot; y=&quot;390&quot; as=&quot;geometry&quot; /&gt;&#10;        &lt;/mxCell&gt;&#10;        &lt;mxCell id=&quot;3&quot; parent=&quot;1&quot; style=&quot;ellipse;whiteSpace=wrap;html=1;sketch=1;curveFitting=1;jiggle=2;shadow=1;opacity=70;&quot; value=&quot;&quot; vertex=&quot;1&quot;&gt;&#10;          &lt;mxGeometry height=&quot;75&quot; width=&quot;120&quot; x=&quot;880&quot; y=&quot;395&quot; as=&quot;geometry&quot; /&gt;&#10;        &lt;/mxCell&gt;&#10;      &lt;/root&gt;&#10;    &lt;/mxGraphModel&gt;&#10;  &lt;/diagram&gt;&#10;&lt;/mxfile&gt;&#10;"><defs/><g><g data-cell-id="oS_xYPnMw4Soo_fBzTLb-0"><g data-cell-id="oS_xYPnMw4Soo_fBzTLb-1"><g data-cell-id="EN9lrR3HB1S8U3wccYiv-21"/><g data-cell-id="EN9lrR3HB1S8U3wccYiv-0"/><g data-cell-id="EN9lrR3HB1S8U3wccYiv-1"/><g data-cell-id="EN9lrR3HB1S8U3wccYiv-2"/><g data-cell-id="EN9lrR3HB1S8U3wccYiv-3"/><g data-cell-id="EN9lrR3HB1S8U3wccYiv-4"/><g data-cell-id="EN9lrR3HB1S8U3wccYiv-5"/><g data-cell-id="EN9lrR3HB1S8U3wccYiv-6"/><g data-cell-id="EN9lrR3HB1S8U3wccYiv-8"/><g data-cell-id="EN9lrR3HB1S8U3wccYiv-9"/><g data-cell-id="EN9lrR3HB1S8U3wccYiv-10"/><g data-cell-id="EN9lrR3HB1S8U3wccYiv-11"/><g data-cell-id="EN9lrR3HB1S8U3wccYiv-12"/><g data-cell-id="EN9lrR3HB1S8U3wccYiv-13"/><g data-cell-id="EN9lrR3HB1S8U3wccYiv-14"/><g data-cell-id="EN9lrR3HB1S8U3wccYiv-15"/><g data-cell-id="EN9lrR3HB1S8U3wccYiv-16"/><g data-cell-id="EN9lrR3HB1S8U3wccYiv-17"/><g data-cell-id="EN9lrR3HB1S8U3wccYiv-18"/><g data-cell-id="EN9lrR3HB1S8U3wccYiv-20"/><g data-cell-id="EN9lrR3HB1S8U3wccYiv-22"><g transform="translate(0.5,0.5)"><ellipse cx="124" cy="40" rx="60" ry="40" fill="#dae8fc" stroke="#6c8ebf" pointer-events="all" style="fill: rgb(218, 232, 252); stroke: rgb(108, 142, 191);"/></g></g><g data-cell-id="EN9lrR3HB1S8U3wccYiv-23"><g transform="translate(0.5,0.5)" style="filter: drop-shadow(light-dark(rgba(0, 0, 0, 0.25), rgba(237, 237, 237, 0.25)) 2px 3px 2px);"><ellipse cx="64" cy="42.5" rx="60" ry="37.5" fill="none" stroke="none" pointer-events="all"/><path d="M 40.44 9.35 C 49.33 6.6 62.4 6.63 72.38 7.07 C 82.37 7.52 92.84 8.81 100.34 12.01 C 107.84 15.22 113.47 20.32 117.37 26.31 C 121.27 32.29 124.53 41.58 123.72 47.92 C 122.91 54.27 118.39 59.56 112.49 64.39 C 106.59 69.21 97.25 74.58 88.31 76.89 C 79.36 79.2 69 78.99 58.83 78.26 C 48.66 77.53 35.32 76.26 27.3 72.51 C 19.27 68.76 14.58 61.44 10.67 55.75 C 6.76 50.06 3.19 44.23 3.83 38.37 C 4.48 32.51 4.85 25.87 14.54 20.62 C 24.23 15.36 50.82 9.2 61.97 6.84 C 73.13 4.47 81.97 5.8 81.46 6.45 M 52.12 5.14 C 61.16 4.28 73.41 7 82.74 8.75 C 92.08 10.5 101.12 10.85 108.13 15.63 C 115.13 20.42 122.47 30.56 124.77 37.46 C 127.07 44.37 125.79 51.79 121.94 57.08 C 118.09 62.37 109.23 65 101.66 69.21 C 94.09 73.43 85.89 81.34 76.52 82.38 C 67.15 83.42 54.91 78.39 45.43 75.44 C 35.94 72.5 26.61 69.41 19.61 64.7 C 12.61 60 5.26 52.92 3.42 47.21 C 1.58 41.5 5.1 35.56 8.56 30.44 C 12.02 25.32 17.09 20.38 24.17 16.51 C 31.26 12.63 45.88 9.07 51.07 7.22 C 56.27 5.36 54.74 4.82 55.35 5.39" fill-opacity="0.7" fill="#ffffff" stroke="none" pointer-events="all" style="fill: light-dark(#ffffff, var(--ge-dark-color, #121212));"/><path d="M 20.49 17.71 C 26.28 13.09 36.23 9.17 45.98 6.92 C 55.72 4.66 69.13 2.74 78.97 4.19 C 88.81 5.63 97.74 10.75 105 15.56 C 112.26 20.38 119.82 27 122.52 33.08 C 125.22 39.16 123.38 46.41 121.2 52.06 C 119.02 57.72 115.85 62.75 109.44 67.03 C 103.03 71.3 92.81 75.38 82.75 77.72 C 72.69 80.06 59.01 82.59 49.09 81.08 C 39.16 79.57 30.26 73.27 23.22 68.64 C 16.19 64.01 9.58 59.19 6.88 53.31 C 4.18 47.43 2.8 40.24 7.02 33.37 C 11.25 26.5 26.16 16.35 32.22 12.09 C 38.28 7.83 43.16 7.35 43.39 7.82 M 92.81 9.75 C 101.58 11.7 110.02 18.67 115.69 23.42 C 121.35 28.17 126.99 31.9 126.8 38.26 C 126.62 44.62 119.85 55.88 114.58 61.59 C 109.3 67.3 103.42 69.32 95.13 72.54 C 86.85 75.76 74.23 80.55 64.88 80.89 C 55.52 81.23 47.42 77.13 39.01 74.57 C 30.61 72.02 20.68 70.98 14.46 65.57 C 8.25 60.15 2.1 48.83 1.72 42.08 C 1.35 35.33 7.23 29.85 12.22 25.08 C 17.21 20.31 23.11 16.94 31.68 13.43 C 40.25 9.92 53.43 4.73 63.63 4.02 C 73.82 3.31 88.62 7.95 92.88 9.16 C 97.13 10.38 89.65 10.27 89.15 11.31" fill="none" stroke="#000000" stroke-opacity="0.7" stroke-linejoin="round" stroke-linecap="round" stroke-miterlimit="10" pointer-events="all" style="stroke: light-dark(rgb(0, 0, 0), rgb(255, 255, 255));"/></g></g><g data-cell-id="EN9lrR3HB1S8U3wccYiv-24"/><g data-cell-id="EN9lrR3HB1S8U3wccYiv-25"/><g data-cell-id="EN9lrR3HB1S8U3wccYiv-26"/><g data-cell-id="EN9lrR3HB1S8U3wccYiv-27"/><g data-cell-id="EN9lrR3HB1S8U3wccYiv-28"/><g data-cell-id="EN9lrR3HB1S8U3wccYiv-29"/><g data-cell-id="YKcdp4Kwq27x6Xbn9KrJ-0"/><g data-cell-id="YKcdp4Kwq27x6Xbn9KrJ-1"/><g data-cell-id="YKcdp4Kwq27x6Xbn9KrJ-2"/><g data-cell-id="YKcdp4Kwq27x6Xbn9KrJ-3"/><g data-cell-id="YKcdp4Kwq27x6Xbn9KrJ-4"/><g data-cell-id="YKcdp4Kwq27x6Xbn9KrJ-5"/><g data-cell-id="YKcdp4Kwq27x6Xbn9KrJ-6"/><g data-cell-id="YKcdp4Kwq27x6Xbn9KrJ-7"/><g data-cell-id="YKcdp4Kwq27x6Xbn9KrJ-8"/><g data-cell-id="YKcdp4Kwq27x6Xbn9KrJ-9"/><g data-cell-id="YKcdp4Kwq27x6Xbn9KrJ-10"/><g data-cell-id="YKcdp4Kwq27x6Xbn9KrJ-11"/><g data-cell-id="YKcdp4Kwq27x6Xbn9KrJ-12"/><g data-cell-id="YKcdp4Kwq27x6Xbn9KrJ-13"/><g data-cell-id="YKcdp4Kwq27x6Xbn9KrJ-14"/><g data-cell-id="o28hPu1m6KaT-_-dOziC-0"/><g data-cell-id="o28hPu1m6KaT-_-dOziC-1"/><g data-cell-id="o28hPu1m6KaT-_-dOziC-2"/></g></g></g></svg>