<?xml version="1.0" encoding="UTF-8"?>
<!-- Do not edit this file with editors other than draw.io -->
<!DOCTYPE svg PUBLIC "-//W3C//DTD SVG 1.1//EN" "http://www.w3.org/Graphics/SVG/1.1/DTD/svg11.dtd">
<svg xmlns="http://www.w3.org/2000/svg" style="background: transparent; background-color: transparent; color-scheme: light dark;" xmlns:xlink="http://www.w3.org/1999/xlink" version="1.1" width="121px" height="81px" viewBox="0 0 121 81" content="&lt;mxfile host=&quot;Electron&quot; agent=&quot;Mozilla/5.0 (Macintosh; Intel Mac OS X 10_15_7) AppleWebKit/537.36 (KHTML, like Gecko) draw.io/29.3.6 Chrome/140.0.7339.249 Electron/38.8.0 Safari/537.36&quot; version=&quot;29.3.6&quot; scale=&quot;1&quot; border=&quot;0&quot;&gt;&#10;  &lt;diagram name=&quot;Page-1&quot; id=&quot;-cR085BBNz1Ei6QRnEhs&quot;&gt;&#10;    &lt;mxGraphModel dx=&quot;1234&quot; dy=&quot;835&quot; grid=&quot;1&quot; gridSize=&quot;10&quot; guides=&quot;1&quot; tooltips=&quot;1&quot; connect=&quot;1&quot; arrows=&quot;1&quot; fold=&quot;1&quot; page=&quot;1&quot; pageScale=&quot;1&quot; pageWidth=&quot;827&quot; pageHeight=&quot;1169&quot; math=&quot;0&quot; shadow=&quot;0&quot;&gt;&#10;      &lt;root&gt;&#10;        &lt;mxCell id=&quot;0&quot; /&gt;&#10;        &lt;mxCell id=&quot;1&quot; parent=&quot;0&quot; /&gt;&#10;        &lt;mxCell id=&quot;2&quot; parent=&quot;1&quot; style=&quot;ellipse;whiteSpace=wrap;html=1;fillColor=#dae8fc;strokeColor=#6c8ebf;&quot; value=&quot;&quot; vertex=&quot;1&quot;&gt;&#10;          &lt;mxGeometry height=&quot;80&quot; width=&quot;120&quot; x=&quot;940&quot; y=&quot;160&quot; as=&quot;geometry&quot; /&gt;&#10;        &lt;/mxCell&gt;&#10;        &lt;mxCell id=&quot;3&quot; parent=&quot;1&quot; style=&quot;ellipse;whiteSpace=wrap;html=1;sketch=1;curveFitting=1;jiggle=2;shadow=1;opacity=70;&quot; value=&quot;&quot; vertex=&quot;1&quot;&gt;&#10;          &lt;mxGeometry height=&quot;50&quot; width=&quot;40&quot; x=&quot;960&quot; y=&quot;175&quot; as=&quot;geometry&quot; /&gt;&#10;        &lt;/mxCell&gt;&#10;      &lt;/root&gt;&#10;    &lt;/mxGraphModel&gt;&#10;  &lt;/diagram&gt;&#10;&lt;/mxfile&gt;&#10;"><defs/><g><g data-cell-id="oS_xYPnMw4Soo_fBzTLb-0"><g data-cell-id="oS_xYPnMw4Soo_fBzTLb-1"><g data-cell-id="EN9lrR3HB1S8U3wccYiv-21"/><g data-cell-id="EN9lrR3HB1S8U3wccYiv-0"/><g data-cell-id="EN9lrR3HB1S8U3wccYiv-1"/><g data-cell-id="EN9lrR3HB1S8U3wccYiv-2"/><g data-cell-id="EN9lrR3HB1S8U3wccYiv-3"/><g data-cell-id="EN9lrR3HB1S8U3wccYiv-4"/><g data-cell-id="EN9lrR3HB1S8U3wccYiv-5"/><g data-cell-id="EN9lrR3HB1S8U3wccYiv-6"/><g data-cell-id="EN9lrR3HB1S8U3wccYiv-8"/><g data-cell-id="EN9lrR3HB1S8U3wccYiv-9"/><g data-cell-id="EN9lrR3HB1S8U3wccYiv-10"/><g data-cell-id="EN9lrR3HB1S8U3wccYiv-11"/><g data-cell-id="EN9lrR3HB1S8U3wccYiv-12"/><g data-cell-id="EN9lrR3HB1S8U3wccYiv-13"/><g data-cell-id="EN9lrR3HB1S8U3wccYiv-14"/><g data-cell-id="EN9lrR3HB1S8U3wccYiv-15"/><g data-cell-id="EN9lrR3HB1S8U3wccYiv-16"/><g data-cell-id="EN9lrR3HB1S8U3wccYiv-17"><g transform="translate(0.5,0.5)"><ellipse cx="60" cy="40" rx="60" ry="40" fill="#dae8fc" stroke="#6c8ebf" pointer-events="all" style="fill: rgb(218, 232, 252); stroke: rgb(108, 142, 191);"/></g></g><g data-cell-id="EN9lrR3HB1S8U3wccYiv-18"><g transform="translate(0.5,0.5)" style="filter: drop-shadow(light-dark(rgba(0, 0, 0, 0.25), rgba(237, 237, 237, 0.25)) 2px 3px 2px);"><ellipse cx="40" cy="40" rx="20" ry="25" fill="none" stroke="none" pointer-events="all"/><path d="M 47 16.92 C 51.21 18.71 57.43 25.1 59.41 29.79 C 61.39 34.48 59.92 39.95 58.89 45.04 C 57.85 50.12 56.66 57.16 53.19 60.3 C 49.72 63.45 42.67 64.11 38.07 63.9 C 33.47 63.7 28.4 62.36 25.62 59.09 C 22.84 55.82 21.73 49.33 21.39 44.29 C 21.05 39.25 21.56 33.43 23.56 28.84 C 25.56 24.24 29 18.4 33.39 16.7 C 37.78 15.01 46.69 17.62 49.9 18.66 C 53.11 19.7 52.77 22.33 52.65 22.93 M 46.96 16.7 C 50.68 18.21 58.1 23.4 59.71 28.17 C 61.32 32.94 58.13 39.81 56.62 45.31 C 55.12 50.81 53.41 57.85 50.68 61.19 C 47.94 64.54 44.68 66.26 40.2 65.4 C 35.73 64.54 27.66 60.15 23.83 56.03 C 20 51.92 17.05 45.72 17.22 40.71 C 17.4 35.69 22.01 30.44 24.89 25.93 C 27.77 21.43 30.96 14.9 34.49 13.69 C 38.03 12.48 43.83 17.84 46.1 18.66 C 48.38 19.49 48.32 18.78 48.17 18.63" fill-opacity="0.7" fill="#ffffff" stroke="none" pointer-events="all" style="fill: light-dark(#ffffff, var(--ge-dark-color, #121212));"/><path d="M 51.22 21.53 C 54.69 24.44 59.15 31.62 60.06 36.27 C 60.97 40.91 58.38 45.23 56.68 49.41 C 54.98 53.6 53.68 59.14 49.86 61.39 C 46.04 63.63 38.13 64.03 33.75 62.9 C 29.38 61.78 25.78 58.7 23.6 54.62 C 21.42 50.54 19.97 44.15 20.69 38.4 C 21.41 32.65 25.2 24.34 27.92 20.13 C 30.64 15.92 32.08 11.78 37.01 13.15 C 41.95 14.53 53.86 24.11 57.55 28.35 C 61.23 32.59 59.56 38.11 59.13 38.59 M 49.53 21.36 C 53.58 23.47 58.84 25.08 60.53 29.29 C 62.22 33.51 61.63 41.5 59.66 46.65 C 57.69 51.8 52.63 57.57 48.7 60.2 C 44.76 62.82 39.6 62.9 36.03 62.41 C 32.46 61.93 30.3 60.55 27.29 57.29 C 24.29 54.03 18.29 48.37 18 42.86 C 17.72 37.35 22.6 28.71 25.6 24.23 C 28.59 19.75 31.71 17.09 35.97 15.97 C 40.23 14.84 49.06 17.4 51.14 17.46 C 53.22 17.52 49.1 15.67 48.44 16.32" fill="none" stroke="#000000" stroke-opacity="0.7" stroke-linejoin="round" stroke-linecap="round" stroke-miterlimit="10" pointer-events="all" style="stroke: light-dark(rgb(0, 0, 0), rgb(255, 255, 255));"/></g></g><g data-cell-id="EN9lrR3HB1S8U3wccYiv-20"/><g data-cell-id="EN9lrR3HB1S8U3wccYiv-22"/><g data-cell-id="EN9lrR3HB1S8U3wccYiv-23"/><g data-cell-id="EN9lrR3HB1S8U3wccYiv-24"/><g data-cell-id="EN9lrR3HB1S8U3wccYiv-25"/><g data-cell-id="EN9lrR3HB1S8U3wccYiv-26"/><g data-cell-id="EN9lrR3HB1S8U3wccYiv-27"/><g data-cell-id="EN9lrR3HB1S8U3wccYiv-28"/><g data-cell-id="EN9lrR3HB1S8U3wccYiv-29"/><g data-cell-id="YKcdp4Kwq27x6Xbn9KrJ-0"/><g data-cell-id="YKcdp4Kwq27x6Xbn9KrJ-1"/><g data-cell-id="YKcdp4Kwq27x6Xbn9KrJ-2"/><g data-cell-id="YKcdp4Kwq27x6Xbn9KrJ-3"/><g data-cell-id="YKcdp4Kwq27x6Xbn9KrJ-4"/><g data-cell-id="YKcdp4Kwq27x6Xbn9KrJ-5"/><g data-cell-id="YKcdp4Kwq27x6Xbn9KrJ-6"/><g data-cell-id="YKcdp4Kwq27x6Xbn9KrJ-7"/><g data-cell-id="YKcdp4Kwq27x6Xbn9KrJ-8"/><g data-cell-id="YKcdp4Kwq27x6Xbn9KrJ-9"/><g data-cell-id="YKcdp4Kwq27x6Xbn9KrJ-10"/><g data-cell-id="YKcdp4Kwq27x6Xbn9KrJ-11"/><g data-cell-id="YKcdp4Kwq27x6Xbn9KrJ-12"/><g data-cell-id="YKcdp4Kwq27x6Xbn9KrJ-13"/><g data-cell-id="YKcdp4Kwq27x6Xbn9KrJ-14"/><g data-cell-id="o28hPu1m6KaT-_-dOziC-0"/><g data-cell-id="o28hPu1m6KaT-_-dOziC-1"/><g data-cell-id="o28hPu1m6KaT-_-dOziC-2"/></g></g></g></svg>