<?xml version="1.0" encoding="UTF-8"?>
<!-- Do not edit this file with editors other than draw.io -->
<!DOCTYPE svg PUBLIC "-//W3C//DTD SVG 1.1//EN" "http://www.w3.org/Graphics/SVG/1.1/DTD/svg11.dtd">
<svg xmlns="http://www.w3.org/2000/svg" style="background: transparent; background-color: transparent; color-scheme: light dark;" xmlns:xlink="http://www.w3.org/1999/xlink" version="1.1" width="181px" height="112px" viewBox="0 0 181 112" content="&lt;mxfile host=&quot;Electron&quot; agent=&quot;Mozilla/5.0 (Macintosh; Intel Mac OS X 10_15_7) AppleWebKit/537.36 (KHTML, like Gecko) draw.io/29.3.6 Chrome/140.0.7339.249 Electron/38.8.0 Safari/537.36&quot; version=&quot;29.3.6&quot; scale=&quot;1&quot; border=&quot;0&quot;&gt;&#10;  &lt;diagram name=&quot;Page-1&quot; id=&quot;z-J8TkyX7ZUKtAn2GU76&quot;&gt;&#10;    &lt;mxGraphModel dx=&quot;1234&quot; dy=&quot;835&quot; grid=&quot;1&quot; gridSize=&quot;10&quot; guides=&quot;1&quot; tooltips=&quot;1&quot; connect=&quot;1&quot; arrows=&quot;1&quot; fold=&quot;1&quot; page=&quot;1&quot; pageScale=&quot;1&quot; pageWidth=&quot;827&quot; pageHeight=&quot;1169&quot; math=&quot;0&quot; shadow=&quot;0&quot;&gt;&#10;      &lt;root&gt;&#10;        &lt;mxCell id=&quot;0&quot; /&gt;&#10;        &lt;mxCell id=&quot;1&quot; parent=&quot;0&quot; /&gt;&#10;        &lt;mxCell id=&quot;2&quot; parent=&quot;1&quot; style=&quot;ellipse;whiteSpace=wrap;html=1;sketch=1;curveFitting=1;jiggle=2;shadow=1;opacity=70;&quot; value=&quot;&quot; vertex=&quot;1&quot;&gt;&#10;          &lt;mxGeometry height=&quot;100&quot; width=&quot;170&quot; x=&quot;920&quot; y=&quot;260&quot; as=&quot;geometry&quot; /&gt;&#10;        &lt;/mxCell&gt;&#10;        &lt;mxCell id=&quot;3&quot; parent=&quot;1&quot; style=&quot;ellipse;whiteSpace=wrap;html=1;fillColor=#dae8fc;strokeColor=#6c8ebf;&quot; value=&quot;&quot; vertex=&quot;1&quot;&gt;&#10;          &lt;mxGeometry height=&quot;80&quot; width=&quot;120&quot; x=&quot;940&quot; y=&quot;270&quot; as=&quot;geometry&quot; /&gt;&#10;        &lt;/mxCell&gt;&#10;      &lt;/root&gt;&#10;    &lt;/mxGraphModel&gt;&#10;  &lt;/diagram&gt;&#10;&lt;/mxfile&gt;&#10;"><defs/><g><g data-cell-id="oS_xYPnMw4Soo_fBzTLb-0"><g data-cell-id="oS_xYPnMw4Soo_fBzTLb-1"><g data-cell-id="EN9lrR3HB1S8U3wccYiv-21"><g transform="translate(0.5,0.5)" style="filter: drop-shadow(light-dark(rgba(0, 0, 0, 0.25), rgba(237, 237, 237, 0.25)) 2px 3px 2px);"><ellipse cx="89" cy="54" rx="85" ry="50" fill="none" stroke="none" pointer-events="all"/><path d="M 41.76 10.31 C 51.12 5.95 65.92 7.03 78.38 6.29 C 90.84 5.55 105.07 3.83 116.52 5.9 C 127.97 7.96 138.48 13.62 147.08 18.69 C 155.69 23.76 163.55 29.51 168.15 36.3 C 172.75 43.09 175.75 52.29 174.7 59.44 C 173.64 66.59 168.71 73.02 161.82 79.19 C 154.93 85.35 143.68 92.42 133.35 96.44 C 123.02 100.46 111.74 102.33 99.83 103.29 C 87.91 104.26 73.3 104.28 61.88 102.22 C 50.46 100.16 39.95 95.82 31.3 90.93 C 22.64 86.04 14.67 79.81 9.96 72.86 C 5.25 65.92 1.59 56.57 3.03 49.27 C 4.46 41.96 9.15 36.03 18.57 29.04 C 27.99 22.05 49.03 11.24 59.54 7.34 C 70.06 3.44 81.32 4.68 81.68 5.67 M 103.02 5.17 C 114.79 6.21 127.56 9.43 137.65 14.04 C 147.73 18.64 157.01 26.63 163.51 32.79 C 170.01 38.96 176.55 43.82 176.66 51.04 C 176.77 58.26 169.55 69.68 164.16 76.09 C 158.77 82.49 152.8 85.08 144.32 89.47 C 135.84 93.86 125.33 100.62 113.26 102.43 C 101.19 104.24 84.53 102.12 71.89 100.32 C 59.25 98.52 46.77 95.74 37.41 91.64 C 28.05 87.54 20.81 81.82 15.72 75.72 C 10.62 69.63 7.15 62.31 6.85 55.08 C 6.54 47.85 9.79 38.83 13.88 32.34 C 17.97 25.85 22.44 20.55 31.37 16.13 C 40.31 11.71 55.43 7.92 67.48 5.82 C 79.53 3.71 97.11 3.9 103.69 3.48 C 110.27 3.06 106.88 2.09 106.95 3.31" fill-opacity="0.7" fill="#ffffff" stroke="none" pointer-events="all" style="fill: light-dark(#ffffff, var(--ge-dark-color, #121212));"/><path d="M 108.37 5.12 C 120.22 5.5 132.84 9.54 142.45 13.82 C 152.07 18.09 161 24.34 166.04 30.78 C 171.08 37.22 172.62 45.09 172.68 52.47 C 172.74 59.84 171.43 68.16 166.39 75.02 C 161.36 81.88 151.93 88.81 142.45 93.64 C 132.98 98.48 121.07 102.71 109.53 104.04 C 97.98 105.38 85.27 103.23 73.19 101.66 C 61.12 100.1 46.98 99.19 37.07 94.66 C 27.17 90.12 18.95 80.9 13.76 74.44 C 8.57 67.99 6.59 63.1 5.93 55.92 C 5.28 48.74 5.26 38.33 9.83 31.35 C 14.41 24.38 23.53 18.6 33.36 14.07 C 43.19 9.54 49.77 3.83 68.8 4.2 C 87.83 4.57 130.92 10.46 147.52 16.29 C 164.13 22.12 169.41 38.47 168.42 39.17 M 104.2 6.7 C 115.67 6.97 124.96 7.72 134.61 11.73 C 144.26 15.74 155.83 24.29 162.1 30.77 C 168.37 37.25 171.51 43.77 172.23 50.61 C 172.96 57.44 170.43 65.37 166.47 71.78 C 162.5 78.19 157.42 84.52 148.43 89.04 C 139.44 93.56 124.45 96.41 112.55 98.88 C 100.64 101.36 88.88 104.41 77.02 103.92 C 65.17 103.43 52.09 100.32 41.41 95.95 C 30.74 91.58 18.85 84.17 12.96 77.71 C 7.08 71.25 6.72 64.7 6.1 57.17 C 5.48 49.65 4.72 39.4 9.25 32.58 C 13.78 25.75 24.56 20.44 33.28 16.23 C 41.99 12.02 50.49 9.39 61.54 7.33 C 72.6 5.28 92.7 4.34 99.61 3.89 C 106.51 3.44 102.85 3.9 102.97 4.65" fill="none" stroke="#000000" stroke-opacity="0.7" stroke-linejoin="round" stroke-linecap="round" stroke-miterlimit="10" pointer-events="all" style="stroke: light-dark(rgb(0, 0, 0), rgb(255, 255, 255));"/></g></g><g data-cell-id="EN9lrR3HB1S8U3wccYiv-0"/><g data-cell-id="EN9lrR3HB1S8U3wccYiv-1"/><g data-cell-id="EN9lrR3HB1S8U3wccYiv-2"/><g data-cell-id="EN9lrR3HB1S8U3wccYiv-3"/><g data-cell-id="EN9lrR3HB1S8U3wccYiv-4"/><g data-cell-id="EN9lrR3HB1S8U3wccYiv-5"/><g data-cell-id="EN9lrR3HB1S8U3wccYiv-6"/><g data-cell-id="EN9lrR3HB1S8U3wccYiv-8"/><g data-cell-id="EN9lrR3HB1S8U3wccYiv-9"/><g data-cell-id="EN9lrR3HB1S8U3wccYiv-10"/><g data-cell-id="EN9lrR3HB1S8U3wccYiv-11"/><g data-cell-id="EN9lrR3HB1S8U3wccYiv-12"/><g data-cell-id="EN9lrR3HB1S8U3wccYiv-13"/><g data-cell-id="EN9lrR3HB1S8U3wccYiv-14"/><g data-cell-id="EN9lrR3HB1S8U3wccYiv-15"/><g data-cell-id="EN9lrR3HB1S8U3wccYiv-16"/><g data-cell-id="EN9lrR3HB1S8U3wccYiv-17"/><g data-cell-id="EN9lrR3HB1S8U3wccYiv-18"/><g data-cell-id="EN9lrR3HB1S8U3wccYiv-20"><g transform="translate(0.5,0.5)"><ellipse cx="84" cy="54" rx="60" ry="40" fill="#dae8fc" stroke="#6c8ebf" pointer-events="all" style="fill: rgb(218, 232, 252); stroke: rgb(108, 142, 191);"/></g></g><g data-cell-id="EN9lrR3HB1S8U3wccYiv-22"/><g data-cell-id="EN9lrR3HB1S8U3wccYiv-23"/><g data-cell-id="EN9lrR3HB1S8U3wccYiv-24"/><g data-cell-id="EN9lrR3HB1S8U3wccYiv-25"/><g data-cell-id="EN9lrR3HB1S8U3wccYiv-26"/><g data-cell-id="EN9lrR3HB1S8U3wccYiv-27"/><g data-cell-id="EN9lrR3HB1S8U3wccYiv-28"/><g data-cell-id="EN9lrR3HB1S8U3wccYiv-29"/><g data-cell-id="YKcdp4Kwq27x6Xbn9KrJ-0"/><g data-cell-id="YKcdp4Kwq27x6Xbn9KrJ-1"/><g data-cell-id="YKcdp4Kwq27x6Xbn9KrJ-2"/><g data-cell-id="YKcdp4Kwq27x6Xbn9KrJ-3"/><g data-cell-id="YKcdp4Kwq27x6Xbn9KrJ-4"/><g data-cell-id="YKcdp4Kwq27x6Xbn9KrJ-5"/><g data-cell-id="YKcdp4Kwq27x6Xbn9KrJ-6"/><g data-cell-id="YKcdp4Kwq27x6Xbn9KrJ-7"/><g data-cell-id="YKcdp4Kwq27x6Xbn9KrJ-8"/><g data-cell-id="YKcdp4Kwq27x6Xbn9KrJ-9"/><g data-cell-id="YKcdp4Kwq27x6Xbn9KrJ-10"/><g data-cell-id="YKcdp4Kwq27x6Xbn9KrJ-11"/><g data-cell-id="YKcdp4Kwq27x6Xbn9KrJ-12"/><g data-cell-id="YKcdp4Kwq27x6Xbn9KrJ-13"/><g data-cell-id="YKcdp4Kwq27x6Xbn9KrJ-14"/><g data-cell-id="o28hPu1m6KaT-_-dOziC-0"/><g data-cell-id="o28hPu1m6KaT-_-dOziC-1"/><g data-cell-id="o28hPu1m6KaT-_-dOziC-2"/></g></g></g></svg>