<?xml version="1.0" encoding="UTF-8"?>
<!-- Do not edit this file with editors other than draw.io -->
<!DOCTYPE svg PUBLIC "-//W3C//DTD SVG 1.1//EN" "http://www.w3.org/Graphics/SVG/1.1/DTD/svg11.dtd">
<svg xmlns="http://www.w3.org/2000/svg" style="background: transparent; background-color: transparent; color-scheme: light dark;" xmlns:xlink="http://www.w3.org/1999/xlink" version="1.1" width="681px" height="431px" viewBox="0 0 681 431" content="&lt;mxfile host=&quot;Electron&quot; agent=&quot;Mozilla/5.0 (Macintosh; Intel Mac OS X 10_15_7) AppleWebKit/537.36 (KHTML, like Gecko) draw.io/29.3.6 Chrome/140.0.7339.249 Electron/38.8.0 Safari/537.36&quot; version=&quot;29.3.6&quot; scale=&quot;1&quot; border=&quot;0&quot;&gt;&#10;  &lt;diagram name=&quot;Page-1&quot; id=&quot;LNpxv1E4ozegVQJ2RWzj&quot;&gt;&#10;    &lt;mxGraphModel dx=&quot;1234&quot; dy=&quot;835&quot; grid=&quot;1&quot; gridSize=&quot;10&quot; guides=&quot;1&quot; tooltips=&quot;1&quot; connect=&quot;1&quot; arrows=&quot;1&quot; fold=&quot;1&quot; page=&quot;1&quot; pageScale=&quot;1&quot; pageWidth=&quot;827&quot; pageHeight=&quot;1169&quot; math=&quot;0&quot; shadow=&quot;0&quot;&gt;&#10;      &lt;root&gt;&#10;        &lt;mxCell id=&quot;0&quot; /&gt;&#10;        &lt;mxCell id=&quot;1&quot; parent=&quot;0&quot; /&gt;&#10;        &lt;mxCell id=&quot;2&quot; parent=&quot;1&quot; style=&quot;rounded=0;whiteSpace=wrap;html=1;&quot; value=&quot;&quot; vertex=&quot;1&quot;&gt;&#10;          &lt;mxGeometry height=&quot;430&quot; width=&quot;680&quot; x=&quot;80&quot; y=&quot;100&quot; as=&quot;geometry&quot; /&gt;&#10;        &lt;/mxCell&gt;&#10;        &lt;mxCell id=&quot;3&quot; edge=&quot;1&quot; parent=&quot;1&quot; source=&quot;14&quot; style=&quot;endArrow=none;html=1;rounded=0;exitX=-0.033;exitY=0.994;exitDx=0;exitDy=0;exitPerimeter=0;entryX=0;entryY=0;entryDx=0;entryDy=0;entryPerimeter=0;edgeStyle=orthogonalEdgeStyle;curved=1;&quot; target=&quot;14&quot; value=&quot;&quot;&gt;&#10;          &lt;mxGeometry height=&quot;50&quot; relative=&quot;1&quot; width=&quot;50&quot; as=&quot;geometry&quot;&gt;&#10;            &lt;Array as=&quot;points&quot;&gt;&#10;              &lt;mxPoint x=&quot;420&quot; y=&quot;390&quot; /&gt;&#10;            &lt;/Array&gt;&#10;            &lt;mxPoint x=&quot;390&quot; y=&quot;450&quot; as=&quot;sourcePoint&quot; /&gt;&#10;            &lt;mxPoint x=&quot;440&quot; y=&quot;400&quot; as=&quot;targetPoint&quot; /&gt;&#10;          &lt;/mxGeometry&gt;&#10;        &lt;/mxCell&gt;&#10;        &lt;mxCell id=&quot;4&quot; parent=&quot;1&quot; style=&quot;shape=cylinder3;whiteSpace=wrap;html=1;boundedLbl=1;backgroundOutline=1;size=5;rotation=0;fillColor=#f8cecc;strokeColor=#b85450;&quot; value=&quot;&quot; vertex=&quot;1&quot;&gt;&#10;          &lt;mxGeometry height=&quot;44&quot; width=&quot;24.25&quot; x=&quot;415.75&quot; y=&quot;406&quot; as=&quot;geometry&quot; /&gt;&#10;        &lt;/mxCell&gt;&#10;        &lt;mxCell id=&quot;5&quot; edge=&quot;1&quot; parent=&quot;1&quot; style=&quot;endArrow=none;html=1;rounded=0;&quot; value=&quot;&quot;&gt;&#10;          &lt;mxGeometry height=&quot;50&quot; relative=&quot;1&quot; width=&quot;50&quot; as=&quot;geometry&quot;&gt;&#10;            &lt;mxPoint x=&quot;258.75&quot; y=&quot;467&quot; as=&quot;sourcePoint&quot; /&gt;&#10;            &lt;mxPoint x=&quot;588.75&quot; y=&quot;467&quot; as=&quot;targetPoint&quot; /&gt;&#10;          &lt;/mxGeometry&gt;&#10;        &lt;/mxCell&gt;&#10;        &lt;mxCell id=&quot;6&quot; parent=&quot;1&quot; style=&quot;shape=cylinder3;whiteSpace=wrap;html=1;boundedLbl=1;backgroundOutline=1;size=5;rotation=15;fillColor=#e1d5e7;strokeColor=#9673a6;&quot; value=&quot;&quot; vertex=&quot;1&quot;&gt;&#10;          &lt;mxGeometry height=&quot;30&quot; width=&quot;30&quot; x=&quot;330.00038105676657&quot; y=&quot;401.00038105676657&quot; as=&quot;geometry&quot; /&gt;&#10;        &lt;/mxCell&gt;&#10;        &lt;mxCell id=&quot;7&quot; parent=&quot;1&quot; style=&quot;shape=cylinder3;whiteSpace=wrap;html=1;boundedLbl=1;backgroundOutline=1;size=5;rotation=0;fillColor=#f5f5f5;fontColor=#333333;strokeColor=#666666;&quot; value=&quot;&quot; vertex=&quot;1&quot;&gt;&#10;          &lt;mxGeometry height=&quot;30&quot; width=&quot;30&quot; x=&quot;414.00038105676657&quot; y=&quot;340.00038105676657&quot; as=&quot;geometry&quot; /&gt;&#10;        &lt;/mxCell&gt;&#10;        &lt;mxCell id=&quot;8&quot; parent=&quot;1&quot; style=&quot;shape=cylinder3;whiteSpace=wrap;html=1;boundedLbl=1;backgroundOutline=1;size=5;rotation=0;fillColor=#d5e8d4;strokeColor=#82b366;&quot; value=&quot;&quot; vertex=&quot;1&quot;&gt;&#10;          &lt;mxGeometry height=&quot;30&quot; width=&quot;30&quot; x=&quot;363.75&quot; y=&quot;420&quot; as=&quot;geometry&quot; /&gt;&#10;        &lt;/mxCell&gt;&#10;        &lt;mxCell id=&quot;9&quot; parent=&quot;1&quot; style=&quot;shape=cylinder3;whiteSpace=wrap;html=1;boundedLbl=1;backgroundOutline=1;size=5;rotation=15;fillColor=#f8cecc;strokeColor=#b85450;&quot; value=&quot;&quot; vertex=&quot;1&quot;&gt;&#10;          &lt;mxGeometry height=&quot;30&quot; width=&quot;30&quot; x=&quot;470&quot; y=&quot;420&quot; as=&quot;geometry&quot; /&gt;&#10;        &lt;/mxCell&gt;&#10;        &lt;mxCell id=&quot;10&quot; parent=&quot;1&quot; style=&quot;shape=cylinder3;whiteSpace=wrap;html=1;boundedLbl=1;backgroundOutline=1;size=5;rotation=0;fillColor=#ffe6cc;strokeColor=#d79b00;&quot; value=&quot;&quot; vertex=&quot;1&quot;&gt;&#10;          &lt;mxGeometry height=&quot;30&quot; width=&quot;30&quot; x=&quot;400&quot; y=&quot;427&quot; as=&quot;geometry&quot; /&gt;&#10;        &lt;/mxCell&gt;&#10;        &lt;mxCell id=&quot;11&quot; parent=&quot;1&quot; style=&quot;shape=cylinder3;whiteSpace=wrap;html=1;boundedLbl=1;backgroundOutline=1;size=5;rotation=15;fillColor=#e1d5e7;strokeColor=#9673a6;&quot; value=&quot;&quot; vertex=&quot;1&quot;&gt;&#10;          &lt;mxGeometry height=&quot;30&quot; width=&quot;20&quot; x=&quot;470&quot; y=&quot;350&quot; as=&quot;geometry&quot; /&gt;&#10;        &lt;/mxCell&gt;&#10;        &lt;mxCell id=&quot;12&quot; parent=&quot;1&quot; style=&quot;shape=cylinder3;whiteSpace=wrap;html=1;boundedLbl=1;backgroundOutline=1;size=5;rotation=5;fillColor=#d5e8d4;strokeColor=#82b366;&quot; value=&quot;&quot; vertex=&quot;1&quot;&gt;&#10;          &lt;mxGeometry height=&quot;46&quot; width=&quot;50&quot; x=&quot;414&quot; y=&quot;140&quot; as=&quot;geometry&quot; /&gt;&#10;        &lt;/mxCell&gt;&#10;        &lt;mxCell id=&quot;13&quot; parent=&quot;1&quot; style=&quot;shape=cylinder3;whiteSpace=wrap;html=1;boundedLbl=1;backgroundOutline=1;size=5;rotation=75;fillColor=#fff2cc;strokeColor=#d6b656;&quot; value=&quot;&quot; vertex=&quot;1&quot;&gt;&#10;          &lt;mxGeometry height=&quot;30&quot; width=&quot;20&quot; x=&quot;445.7515439394285&quot; y=&quot;424.9970778453613&quot; as=&quot;geometry&quot; /&gt;&#10;        &lt;/mxCell&gt;&#10;        &lt;mxCell id=&quot;14&quot; parent=&quot;1&quot; style=&quot;shape=xor;whiteSpace=wrap;html=1;rotation=90;fillColor=#dae8fc;strokeColor=#6c8ebf;&quot; value=&quot;&quot; vertex=&quot;1&quot;&gt;&#10;          &lt;mxGeometry height=&quot;232.5&quot; width=&quot;60&quot; x=&quot;393.75&quot; y=&quot;343.75&quot; as=&quot;geometry&quot; /&gt;&#10;        &lt;/mxCell&gt;&#10;        &lt;mxCell id=&quot;15&quot; parent=&quot;1&quot; style=&quot;rounded=0;whiteSpace=wrap;html=1;strokeColor=none;&quot; value=&quot;&quot; vertex=&quot;1&quot;&gt;&#10;          &lt;mxGeometry height=&quot;10&quot; width=&quot;290&quot; x=&quot;278.75&quot; y=&quot;230&quot; as=&quot;geometry&quot; /&gt;&#10;        &lt;/mxCell&gt;&#10;        &lt;mxCell id=&quot;16&quot; parent=&quot;1&quot; style=&quot;shape=cylinder3;whiteSpace=wrap;html=1;boundedLbl=1;backgroundOutline=1;size=5;rotation=-15;fillColor=#e1d5e7;strokeColor=#9673a6;&quot; value=&quot;&quot; vertex=&quot;1&quot;&gt;&#10;          &lt;mxGeometry height=&quot;30&quot; width=&quot;30&quot; x=&quot;360&quot; y=&quot;200&quot; as=&quot;geometry&quot; /&gt;&#10;        &lt;/mxCell&gt;&#10;        &lt;mxCell id=&quot;17&quot; connectable=&quot;0&quot; parent=&quot;1&quot; style=&quot;group&quot; value=&quot;&quot; vertex=&quot;1&quot;&gt;&#10;          &lt;mxGeometry height=&quot;65&quot; width=&quot;303.75&quot; x=&quot;270&quot; y=&quot;240&quot; as=&quot;geometry&quot; /&gt;&#10;        &lt;/mxCell&gt;&#10;        &lt;mxCell id=&quot;18&quot; parent=&quot;17&quot; style=&quot;shape=trapezoid;perimeter=trapezoidPerimeter;whiteSpace=wrap;html=1;fixedSize=1;rotation=-180;fillColor=#ffe6cc;strokeColor=#d79b00;&quot; value=&quot;&quot; vertex=&quot;1&quot;&gt;&#10;          &lt;mxGeometry height=&quot;60&quot; width=&quot;303.75&quot; y=&quot;5&quot; as=&quot;geometry&quot; /&gt;&#10;        &lt;/mxCell&gt;&#10;        &lt;mxCell id=&quot;19&quot; parent=&quot;17&quot; style=&quot;shape=trapezoid;perimeter=trapezoidPerimeter;whiteSpace=wrap;html=1;fixedSize=1;rotation=-180;strokeColor=none;&quot; value=&quot;&quot; vertex=&quot;1&quot;&gt;&#10;          &lt;mxGeometry height=&quot;60&quot; width=&quot;295.66995073891627&quot; x=&quot;4.046009852216743&quot; as=&quot;geometry&quot; /&gt;&#10;        &lt;/mxCell&gt;&#10;        &lt;mxCell id=&quot;20&quot; parent=&quot;1&quot; style=&quot;rounded=0;whiteSpace=wrap;html=1;strokeColor=none;&quot; value=&quot;&quot; vertex=&quot;1&quot;&gt;&#10;          &lt;mxGeometry height=&quot;20&quot; width=&quot;45&quot; x=&quot;333.75&quot; y=&quot;286&quot; as=&quot;geometry&quot; /&gt;&#10;        &lt;/mxCell&gt;&#10;        &lt;mxCell id=&quot;21&quot; parent=&quot;1&quot; style=&quot;rounded=0;whiteSpace=wrap;html=1;strokeColor=none;&quot; value=&quot;&quot; vertex=&quot;1&quot;&gt;&#10;          &lt;mxGeometry height=&quot;20&quot; width=&quot;45&quot; x=&quot;401.25&quot; y=&quot;286&quot; as=&quot;geometry&quot; /&gt;&#10;        &lt;/mxCell&gt;&#10;        &lt;mxCell id=&quot;22&quot; parent=&quot;1&quot; style=&quot;rounded=0;whiteSpace=wrap;html=1;strokeColor=none;&quot; value=&quot;&quot; vertex=&quot;1&quot;&gt;&#10;          &lt;mxGeometry height=&quot;20&quot; width=&quot;45&quot; x=&quot;470&quot; y=&quot;286&quot; as=&quot;geometry&quot; /&gt;&#10;        &lt;/mxCell&gt;&#10;        &lt;mxCell id=&quot;23&quot; parent=&quot;1&quot; style=&quot;shape=cylinder3;whiteSpace=wrap;html=1;boundedLbl=1;backgroundOutline=1;size=5;rotation=-30;fillColor=#ffcc99;strokeColor=#36393d;&quot; value=&quot;&quot; vertex=&quot;1&quot;&gt;&#10;          &lt;mxGeometry height=&quot;30&quot; width=&quot;30&quot; x=&quot;340&quot; y=&quot;290&quot; as=&quot;geometry&quot; /&gt;&#10;        &lt;/mxCell&gt;&#10;        &lt;mxCell id=&quot;24&quot; parent=&quot;1&quot; style=&quot;shape=cylinder3;whiteSpace=wrap;html=1;boundedLbl=1;backgroundOutline=1;size=5;rotation=0;fillColor=#fff2cc;strokeColor=#000000;&quot; value=&quot;&quot; vertex=&quot;1&quot;&gt;&#10;          &lt;mxGeometry height=&quot;36&quot; width=&quot;50&quot; x=&quot;497&quot; y=&quot;264&quot; as=&quot;geometry&quot; /&gt;&#10;        &lt;/mxCell&gt;&#10;      &lt;/root&gt;&#10;    &lt;/mxGraphModel&gt;&#10;  &lt;/diagram&gt;&#10;&lt;/mxfile&gt;&#10;"><defs/><g><g data-cell-id="0"><g data-cell-id="1"><g data-cell-id="__wYz_c58dJmevJSf6NI-2"/><g data-cell-id="__wYz_c58dJmevJSf6NI-1"><g transform="translate(0.5,0.5)"><rect x="0" y="0" width="680" height="430" fill="#ffffff" stroke="#000000" pointer-events="all" style="fill: light-dark(#ffffff, var(--ge-dark-color, #121212)); stroke: light-dark(rgb(0, 0, 0), rgb(255, 255, 255));"/></g></g><g data-cell-id="kU-icUQZe6x8IakkcXin-16"><g transform="translate(0.5,0.5)"><path d="M 228.89 328.02 Q 340 290 460 330" fill="none" stroke="#000000" stroke-miterlimit="10" pointer-events="stroke" style="stroke: light-dark(rgb(0, 0, 0), rgb(255, 255, 255));"/></g></g><g data-cell-id="kU-icUQZe6x8IakkcXin-30"><g transform="translate(0.5,0.5)"><path d="M 335.75 311 C 335.75 308.24 341.18 306 347.88 306 C 351.09 306 354.17 306.53 356.45 307.46 C 358.72 308.4 360 309.67 360 311 L 360 345 C 360 347.76 354.57 350 347.88 350 C 341.18 350 335.75 347.76 335.75 345 Z" fill="#f8cecc" stroke="#b85450" stroke-miterlimit="10" pointer-events="all" style="fill: rgb(248, 206, 204); stroke: rgb(184, 84, 80);"/><path d="M 360 311 C 360 313.76 354.57 316 347.88 316 C 341.18 316 335.75 313.76 335.75 311" fill="none" stroke="#b85450" stroke-miterlimit="10" pointer-events="all" style="stroke: rgb(184, 84, 80);"/></g></g><g data-cell-id="kU-icUQZe6x8IakkcXin-29"><g transform="translate(0.5,0.5)"><path d="M 178.75 367 L 508.75 367" fill="none" stroke="#000000" stroke-miterlimit="10" pointer-events="stroke" style="stroke: light-dark(rgb(0, 0, 0), rgb(255, 255, 255));"/></g></g><g data-cell-id="kU-icUQZe6x8IakkcXin-17"><g transform="translate(0.5,0.5)"><path d="M 250 306 C 250 303.24 256.72 301 265 301 C 268.98 301 272.79 301.53 275.61 302.46 C 278.42 303.4 280 304.67 280 306 L 280 326 C 280 328.76 273.28 331 265 331 C 261.02 331 257.21 330.47 254.39 329.54 C 251.58 328.6 250 327.33 250 326 Z" fill="#e1d5e7" stroke="#9673a6" stroke-miterlimit="10" transform="rotate(15,265,316)" pointer-events="all" style="fill: rgb(225, 213, 231); stroke: rgb(150, 115, 166);"/><path d="M 280 306 C 280 308.76 273.28 311 265 311 C 261.02 311 257.21 310.47 254.39 309.54 C 251.58 308.6 250 307.33 250 306" fill="none" stroke="#9673a6" stroke-miterlimit="10" transform="rotate(15,265,316)" pointer-events="all" style="stroke: rgb(150, 115, 166);"/></g></g><g data-cell-id="kU-icUQZe6x8IakkcXin-18"><g transform="translate(0.5,0.5)"><path d="M 334 245 C 334 242.24 340.72 240 349 240 C 352.98 240 356.79 240.53 359.61 241.46 C 362.42 242.4 364 243.67 364 245 L 364 265 C 364 267.76 357.28 270 349 270 C 345.02 270 341.21 269.47 338.39 268.54 C 335.58 267.6 334 266.33 334 265 Z" fill="#f5f5f5" stroke="#666666" stroke-miterlimit="10" pointer-events="all" style="fill: rgb(245, 245, 245); stroke: rgb(102, 102, 102);"/><path d="M 364 245 C 364 247.76 357.28 250 349 250 C 345.02 250 341.21 249.47 338.39 248.54 C 335.58 247.6 334 246.33 334 245" fill="none" stroke="#666666" stroke-miterlimit="10" pointer-events="all" style="stroke: rgb(102, 102, 102);"/></g></g><g data-cell-id="kU-icUQZe6x8IakkcXin-20"><g transform="translate(0.5,0.5)"><path d="M 283.75 325 C 283.75 322.24 290.47 320 298.75 320 C 302.73 320 306.54 320.53 309.36 321.46 C 312.17 322.4 313.75 323.67 313.75 325 L 313.75 345 C 313.75 347.76 307.03 350 298.75 350 C 294.77 350 290.96 349.47 288.14 348.54 C 285.33 347.6 283.75 346.33 283.75 345 Z" fill="#d5e8d4" stroke="#82b366" stroke-miterlimit="10" pointer-events="all" style="fill: rgb(213, 232, 212); stroke: rgb(130, 179, 102);"/><path d="M 313.75 325 C 313.75 327.76 307.03 330 298.75 330 C 294.77 330 290.96 329.47 288.14 328.54 C 285.33 327.6 283.75 326.33 283.75 325" fill="none" stroke="#82b366" stroke-miterlimit="10" pointer-events="all" style="stroke: rgb(130, 179, 102);"/></g></g><g data-cell-id="kU-icUQZe6x8IakkcXin-21"><g transform="translate(0.5,0.5)"><path d="M 390 325 C 390 322.24 396.72 320 405 320 C 408.98 320 412.79 320.53 415.61 321.46 C 418.42 322.4 420 323.67 420 325 L 420 345 C 420 347.76 413.28 350 405 350 C 401.02 350 397.21 349.47 394.39 348.54 C 391.58 347.6 390 346.33 390 345 Z" fill="#f8cecc" stroke="#b85450" stroke-miterlimit="10" transform="rotate(15,405,335)" pointer-events="all" style="fill: rgb(248, 206, 204); stroke: rgb(184, 84, 80);"/><path d="M 420 325 C 420 327.76 413.28 330 405 330 C 401.02 330 397.21 329.47 394.39 328.54 C 391.58 327.6 390 326.33 390 325" fill="none" stroke="#b85450" stroke-miterlimit="10" transform="rotate(15,405,335)" pointer-events="all" style="stroke: rgb(184, 84, 80);"/></g></g><g data-cell-id="kU-icUQZe6x8IakkcXin-22"><g transform="translate(0.5,0.5)"><path d="M 320 332 C 320 329.24 326.72 327 335 327 C 338.98 327 342.79 327.53 345.61 328.46 C 348.42 329.4 350 330.67 350 332 L 350 352 C 350 354.76 343.28 357 335 357 C 331.02 357 327.21 356.47 324.39 355.54 C 321.58 354.6 320 353.33 320 352 Z" fill="#ffe6cc" stroke="#d79b00" stroke-miterlimit="10" pointer-events="all" style="fill: rgb(255, 230, 204); stroke: rgb(215, 155, 0);"/><path d="M 350 332 C 350 334.76 343.28 337 335 337 C 331.02 337 327.21 336.47 324.39 335.54 C 321.58 334.6 320 333.33 320 332" fill="none" stroke="#d79b00" stroke-miterlimit="10" pointer-events="all" style="stroke: rgb(215, 155, 0);"/></g></g><g data-cell-id="kU-icUQZe6x8IakkcXin-23"><g transform="translate(0.5,0.5)"><path d="M 390 255 C 390 252.24 394.48 250 400 250 C 402.65 250 405.2 250.53 407.07 251.46 C 408.95 252.4 410 253.67 410 255 L 410 275 C 410 277.76 405.52 280 400 280 C 394.48 280 390 277.76 390 275 Z" fill="#e1d5e7" stroke="#9673a6" stroke-miterlimit="10" transform="rotate(15,400,265)" pointer-events="all" style="fill: rgb(225, 213, 231); stroke: rgb(150, 115, 166);"/><path d="M 410 255 C 410 257.76 405.52 260 400 260 C 394.48 260 390 257.76 390 255" fill="none" stroke="#9673a6" stroke-miterlimit="10" transform="rotate(15,400,265)" pointer-events="all" style="stroke: rgb(150, 115, 166);"/></g></g><g data-cell-id="kU-icUQZe6x8IakkcXin-25"><g transform="translate(0.5,0.5)"><path d="M 334 45 C 334 42.24 345.19 40 359 40 C 365.63 40 371.99 40.53 376.68 41.46 C 381.37 42.4 384 43.67 384 45 L 384 81 C 384 83.76 372.81 86 359 86 C 345.19 86 334 83.76 334 81 Z" fill="#d5e8d4" stroke="#82b366" stroke-miterlimit="10" transform="rotate(5,359,63)" pointer-events="all" style="fill: rgb(213, 232, 212); stroke: rgb(130, 179, 102);"/><path d="M 384 45 C 384 47.76 372.81 50 359 50 C 345.19 50 334 47.76 334 45" fill="none" stroke="#82b366" stroke-miterlimit="10" transform="rotate(5,359,63)" pointer-events="all" style="stroke: rgb(130, 179, 102);"/></g></g><g data-cell-id="kU-icUQZe6x8IakkcXin-26"><g transform="translate(0.5,0.5)"><path d="M 365.75 330 C 365.75 327.24 370.23 325 375.75 325 C 378.4 325 380.95 325.52 382.82 326.46 C 384.7 327.4 385.75 328.67 385.75 330 L 385.75 350 C 385.75 352.76 381.27 355 375.75 355 C 370.23 355 365.75 352.76 365.75 350 Z" fill="#fff2cc" stroke="#d6b656" stroke-miterlimit="10" transform="rotate(75,375.75,340)" pointer-events="all" style="fill: rgb(255, 242, 204); stroke: rgb(214, 182, 86);"/><path d="M 385.75 330 C 385.75 332.76 381.27 335 375.75 335 C 370.23 335 365.75 332.76 365.75 330" fill="none" stroke="#d6b656" stroke-miterlimit="10" transform="rotate(75,375.75,340)" pointer-events="all" style="stroke: rgb(214, 182, 86);"/></g></g><g data-cell-id="kU-icUQZe6x8IakkcXin-9"><g transform="translate(0.5,0.5)"><path d="M 313.75 243.75 Q 373.75 243.75 373.75 360 Q 373.75 476.25 313.75 476.25 Q 343.75 360 313.75 243.75 Z" fill="#dae8fc" stroke="#6c8ebf" stroke-miterlimit="10" transform="rotate(90,343.75,360)" pointer-events="all" style="fill: rgb(218, 232, 252); stroke: rgb(108, 142, 191);"/></g></g><g data-cell-id="kU-icUQZe6x8IakkcXin-5"><g transform="translate(0.5,0.5)"><rect x="198.75" y="130" width="290" height="10" fill="#ffffff" stroke="none" pointer-events="all" style="fill: light-dark(#ffffff, var(--ge-dark-color, #121212));"/></g></g><g data-cell-id="kU-icUQZe6x8IakkcXin-19"><g transform="translate(0.5,0.5)"><path d="M 280 105 C 280 102.24 286.72 100 295 100 C 298.98 100 302.79 100.53 305.61 101.46 C 308.42 102.4 310 103.67 310 105 L 310 125 C 310 127.76 303.28 130 295 130 C 291.02 130 287.21 129.47 284.39 128.54 C 281.58 127.6 280 126.33 280 125 Z" fill="#e1d5e7" stroke="#9673a6" stroke-miterlimit="10" transform="rotate(-15,295,115)" pointer-events="all" style="fill: rgb(225, 213, 231); stroke: rgb(150, 115, 166);"/><path d="M 310 105 C 310 107.76 303.28 110 295 110 C 291.02 110 287.21 109.47 284.39 108.54 C 281.58 107.6 280 106.33 280 105" fill="none" stroke="#9673a6" stroke-miterlimit="10" transform="rotate(-15,295,115)" pointer-events="all" style="stroke: rgb(150, 115, 166);"/></g></g><g data-cell-id="kU-icUQZe6x8IakkcXin-42"><g transform="translate(0.5,0.5)"/><g data-cell-id="kU-icUQZe6x8IakkcXin-31"><g transform="translate(0.5,0.5)"><path d="M 190 205 L 210 145 L 473.75 145 L 493.75 205 Z" fill="#ffe6cc" stroke="#d79b00" stroke-miterlimit="10" transform="rotate(-180,341.88,175)" pointer-events="all" style="fill: rgb(255, 230, 204); stroke: rgb(215, 155, 0);"/></g></g><g data-cell-id="kU-icUQZe6x8IakkcXin-41"><g transform="translate(0.5,0.5)"><path d="M 194.05 200 L 214.05 140 L 469.72 140 L 489.72 200 Z" fill="#ffffff" stroke="none" transform="rotate(-180,341.88,170)" pointer-events="all" style="fill: light-dark(#ffffff, var(--ge-dark-color, #121212));"/></g></g></g><g data-cell-id="kU-icUQZe6x8IakkcXin-2"><g transform="translate(0.5,0.5)"><rect x="253.75" y="186" width="45" height="20" fill="#ffffff" stroke="none" pointer-events="all" style="fill: light-dark(#ffffff, var(--ge-dark-color, #121212));"/></g></g><g data-cell-id="kU-icUQZe6x8IakkcXin-3"><g transform="translate(0.5,0.5)"><rect x="321.25" y="186" width="45" height="20" fill="#ffffff" stroke="none" pointer-events="all" style="fill: light-dark(#ffffff, var(--ge-dark-color, #121212));"/></g></g><g data-cell-id="kU-icUQZe6x8IakkcXin-4"><g transform="translate(0.5,0.5)"><rect x="390" y="186" width="45" height="20" fill="#ffffff" stroke="none" pointer-events="all" style="fill: light-dark(#ffffff, var(--ge-dark-color, #121212));"/></g></g><g data-cell-id="kU-icUQZe6x8IakkcXin-8"><g transform="translate(0.5,0.5)"><path d="M 260 195 C 260 192.24 266.72 190 275 190 C 278.98 190 282.79 190.53 285.61 191.46 C 288.42 192.4 290 193.67 290 195 L 290 215 C 290 217.76 283.28 220 275 220 C 271.02 220 267.21 219.47 264.39 218.54 C 261.58 217.6 260 216.33 260 215 Z" fill="#ffcc99" stroke="#36393d" stroke-miterlimit="10" transform="rotate(-30,275,205)" pointer-events="all" style="fill: rgb(255, 204, 153); stroke: rgb(54, 57, 61);"/><path d="M 290 195 C 290 197.76 283.28 200 275 200 C 271.02 200 267.21 199.47 264.39 198.54 C 261.58 197.6 260 196.33 260 195" fill="none" stroke="#36393d" stroke-miterlimit="10" transform="rotate(-30,275,205)" pointer-events="all" style="stroke: rgb(54, 57, 61);"/></g></g><g data-cell-id="kU-icUQZe6x8IakkcXin-24"><g transform="translate(0.5,0.5)"><path d="M 417 169 C 417 166.24 428.19 164 442 164 C 448.63 164 454.99 164.53 459.68 165.46 C 464.37 166.4 467 167.67 467 169 L 467 195 C 467 197.76 455.81 200 442 200 C 428.19 200 417 197.76 417 195 Z" fill="#fff2cc" stroke="#000000" stroke-miterlimit="10" pointer-events="all" style="fill: rgb(255, 242, 204); stroke: rgb(0, 0, 0);"/><path d="M 467 169 C 467 171.76 455.81 174 442 174 C 428.19 174 417 171.76 417 169" fill="none" stroke="#000000" stroke-miterlimit="10" pointer-events="all" style="stroke: rgb(0, 0, 0);"/></g></g><g data-cell-id="ES0hf_nXI1z5AFs_Zj_4-3"/><g data-cell-id="ES0hf_nXI1z5AFs_Zj_4-4"><g data-cell-id="ES0hf_nXI1z5AFs_Zj_4-5"/><g data-cell-id="ES0hf_nXI1z5AFs_Zj_4-6"/></g><g data-cell-id="ES0hf_nXI1z5AFs_Zj_4-7"/><g data-cell-id="ES0hf_nXI1z5AFs_Zj_4-9"/><g data-cell-id="ES0hf_nXI1z5AFs_Zj_4-11"/><g data-cell-id="ES0hf_nXI1z5AFs_Zj_4-18"/><g data-cell-id="ES0hf_nXI1z5AFs_Zj_4-13"/><g data-cell-id="ES0hf_nXI1z5AFs_Zj_4-14"/><g data-cell-id="ES0hf_nXI1z5AFs_Zj_4-33"/><g data-cell-id="ES0hf_nXI1z5AFs_Zj_4-34"/><g data-cell-id="ES0hf_nXI1z5AFs_Zj_4-20"/><g data-cell-id="ES0hf_nXI1z5AFs_Zj_4-21"/><g data-cell-id="ES0hf_nXI1z5AFs_Zj_4-25"/><g data-cell-id="ES0hf_nXI1z5AFs_Zj_4-26"/><g data-cell-id="ES0hf_nXI1z5AFs_Zj_4-27"/><g data-cell-id="ES0hf_nXI1z5AFs_Zj_4-28"/><g data-cell-id="ES0hf_nXI1z5AFs_Zj_4-29"/><g data-cell-id="ES0hf_nXI1z5AFs_Zj_4-32"/><g data-cell-id="ES0hf_nXI1z5AFs_Zj_4-22"/><g data-cell-id="ES0hf_nXI1z5AFs_Zj_4-23"/><g data-cell-id="ES0hf_nXI1z5AFs_Zj_4-24"/><g data-cell-id="ES0hf_nXI1z5AFs_Zj_4-15"/><g data-cell-id="ES0hf_nXI1z5AFs_Zj_4-16"/><g data-cell-id="ES0hf_nXI1z5AFs_Zj_4-17"/></g></g></g></svg>